<?xml version="1.0" standalone="no"?>
<!DOCTYPE svg PUBLIC "-//W3C//DTD SVG 20010904//EN"
 "http://www.w3.org/TR/2001/REC-SVG-20010904/DTD/svg10.dtd">
<svg version="1.0" xmlns="http://www.w3.org/2000/svg"
 width="278.000000pt" height="278.000000pt" viewBox="0 0 278.000000 278.000000"
 preserveAspectRatio="xMidYMid meet">
<metadata>
Created by potrace 1.14, written by Peter Selinger 2001-2017
</metadata>
<g transform="translate(0.000000,278.000000) scale(0.100000,-0.100000)"
fill="#000000" stroke="none">
<path d="M1231 2770 c-604 -76 -1081 -516 -1201 -1109 -67 -333 -7 -685 165
-977 25 -43 60 -95 77 -117 l31 -39 24 45 c68 134 97 231 168 546 51 232 80
323 141 442 l44 86 -14 64 c-39 171 -46 423 -13 501 28 67 82 76 149 25 48
-37 152 -156 199 -229 30 -46 30 -46 62 -33 52 22 182 45 250 45 l63 0 28 73
c37 94 113 222 154 258 59 52 114 51 147 -3 18 -29 20 -55 23 -230 l4 -197 36
-14 c21 -8 94 -29 164 -47 127 -33 182 -62 208 -109 8 -16 4 -18 -43 -18 -104
0 -155 -32 -164 -102 -5 -36 -2 -44 30 -76 30 -30 42 -35 80 -35 31 0 55 8 82
25 20 15 39 24 42 22 9 -9 -19 -142 -42 -200 -47 -117 -123 -202 -315 -352
-80 -62 -110 -112 -110 -183 0 -74 15 -103 137 -264 113 -148 171 -235 217
-325 14 -29 29 -53 32 -53 14 0 145 93 215 153 330 282 516 749 470 1178 -68
624 -504 1105 -1113 1229 -116 24 -319 33 -427 20z"/>
<path d="M1376 1715 c-67 -62 3 -166 88 -131 40 17 64 72 47 105 -29 53 -92
66 -135 26z"/>
</g>
</svg>
